<svg xmlns="http://www.w3.org/2000/svg" viewBox="0 0 517.22 517.22">
  <defs>
    <style>
      .cls-1, .cls-2 {
        fill: #000003;
      }

      .cls-1, .cls-4 {
        fill-rule: evenodd;
      }

      .cls-3, .cls-4 {
        fill: #f5f5f5;
      }
    </style>
  </defs>
  <title>Asset 23</title>
  <g id="Layer_2" data-name="Layer 2">
    <g id="Layer_1-2" data-name="Layer 1">
      <path class="cls-1" d="M377.25,258.22c3.39-26,4-49,2.38-69.48-16.92-11.59-37.15-22.62-61.37-32.68l-.67-.39c-20.81-15.93-40.48-27.95-59-36.81-18.5,8.86-38.17,20.87-59,36.81l-.67.39c-24.22,10.07-44.45,21.09-61.38,32.69-1.57,20.44-1,43.48,2.4,69.47V259c-3.39,26-4,49-2.39,69.49,16.93,11.59,37.16,22.61,61.37,32.68l.67.38c20.82,15.94,40.48,28,59,36.82,18.5-8.87,38.17-20.88,59-36.82l.67-.38c24.22-10.07,44.46-21.1,61.39-32.69,1.57-20.45,1-43.48-2.4-69.48v-.77ZM251.57,115.61a350.86,350.86,0,0,0-55.27,35.07,350.78,350.78,0,0,0-58,30.34c3.76-35.3,14.1-62.5,27.25-83.64,24.88-.82,53.59,3.84,86,18.23Zm14.07,286a351.13,351.13,0,0,0,55.27-35.07,351.26,351.26,0,0,0,58-30.34c-3.77,35.3-14.1,62.5-27.25,83.63-24.88.82-53.6-3.83-86.05-18.22ZM131.24,193.22c-28.67,20.9-47.06,43.43-58.79,65.37,11.73,22,30.12,44.5,58.8,65.41A351.45,351.45,0,0,1,134,258.61a351.52,351.52,0,0,1-2.75-65.39Zm-62.14,72c12.74,22.49,32.42,45.44,62.71,66.6,3.18,36.81,13.21,65.33,26.32,87.6-42.77-3.32-73.42-22.5-91.34-33.72-6-3.79-10.76-6.74-14.41-8,.72-3.8.52-9.36.26-16.49-.76-21.12-2-57.26,16.46-96Zm96.44,154.62c-13.15-21.14-23.48-48.33-27.25-83.63a351.83,351.83,0,0,0,58,30.33,351.74,351.74,0,0,0,55.25,35.07c-32.43,14.37-61.14,19-86,18.23ZM386,324c28.67-20.89,47.06-43.42,58.79-65.37-11.73-22-30.11-44.5-58.8-65.41a351.48,351.48,0,0,1-2.73,65.4A351.34,351.34,0,0,1,386,324Zm62.15-72c-12.74-22.49-32.42-45.44-62.72-66.59-3.17-36.82-13.21-65.33-26.32-87.61,42.78,3.32,73.43,22.51,91.35,33.73,6,3.78,10.75,6.73,14.4,8-.71,3.81-.51,9.37-.26,16.5.76,21.12,2.05,57.26-16.45,96ZM351.67,97.38c13.15,21.14,23.49,48.33,27.25,83.63a350.26,350.26,0,0,0-58-30.33,351.42,351.42,0,0,0-55.24-35.07c32.43-14.38,61.13-19,86-18.23Zm-305,264c-.8-22.48-2.19-61.47,18.87-102.79-21.06-41.31-19.67-80.3-18.87-102.78.33-9.21.56-15.38-.56-16.61L49,134.27c1.63.35,6.87-2.93,14.68-7.82,19.06-11.93,52.13-32.63,98.44-35,25.25-38.9,59.71-57.2,79.59-67.74,8.14-4.32,13.6-7.22,14.1-8.78h5.7c.49,1.56,6,4.46,14.1,8.78C295.43,34.2,329.89,52.5,355.14,91.4c46.31,2.42,79.39,23.12,98.45,35.05,7.81,4.89,13,8.17,14.68,7.82l2.85,4.94c-1.12,1.23-.9,7.4-.57,16.61.81,22.48,2.2,61.48-18.87,102.79,21.06,41.32,19.68,80.3,18.87,102.78-.33,9.21-.55,15.39.57,16.61L468.27,383c-1.64-.36-6.87,2.92-14.68,7.81-19.06,11.94-52.14,32.63-98.44,35.05-25.25,38.9-59.72,57.2-79.59,67.75-8.14,4.32-13.61,7.21-14.1,8.78h-5.7c-.5-1.57-6-4.46-14.1-8.78-19.87-10.55-54.34-28.84-79.58-67.75-46.31-2.41-79.39-23.11-98.45-35.05C55.82,385.87,50.58,382.59,49,383L46.1,378c1.12-1.22.89-7.4.56-16.61ZM69.1,252C50.6,213.28,51.88,177.16,52.64,156c.26-7.13.46-12.69-.26-16.5,3.65-1.29,8.37-4.24,14.41-8,17.91-11.22,48.56-30.4,91.33-33.73C145,120.07,135,148.59,131.8,185.41c-30.28,21.14-50,44.08-62.7,66.56ZM258.62,112.19c33.45-15.65,63.16-21.23,89-21C323.36,55.81,291.44,38.86,272.77,29c-6.31-3.35-11.22-6-14.16-8.49-2.94,2.53-7.86,5.14-14.16,8.49-18.67,9.9-50.6,26.85-74.86,62.21,25.84-.21,55.56,5.36,89,21Zm189.5,153.06c18.49,38.69,17.21,74.81,16.45,95.93-.25,7.13-.45,12.69.26,16.49-3.65,1.29-8.36,4.24-14.4,8-17.92,11.22-48.57,30.4-91.33,33.72,13.11-22.27,23.14-50.8,26.31-87.61,30.28-21.15,50-44.08,62.71-66.56ZM258.59,405c-33.45,15.65-63.15,21.23-89,21,24.26,35.36,56.18,52.32,74.85,62.22,6.3,3.34,11.22,5.95,14.16,8.48,2.94-2.53,7.85-5.14,14.16-8.48,18.67-9.9,50.6-26.86,74.86-62.22C321.78,426.26,292.06,420.68,258.59,405Z"/>
      <circle class="cls-2" cx="258.61" cy="258.61" r="175.93" transform="translate(-107.12 258.61) rotate(-45)"/>
      <circle class="cls-3" cx="258.61" cy="258.61" r="79.93" transform="translate(-107.12 258.61) rotate(-45)"/>
      <path class="cls-1" d="M258.61,273.91a15.3,15.3,0,1,0-15.3-15.3A15.34,15.34,0,0,0,258.61,273.91Z"/>
      <path class="cls-4" d="M91.37,258.61c25.14-17.87,60.63-39.76,89.82-54.28a95.67,95.67,0,0,1,7.92-9.81c-34.57,16-78.81,42.82-106.43,64.09,27.62,21.26,71.86,48.11,106.43,64.09a94.72,94.72,0,0,1-7.92-9.82C152,298.37,116.51,276.48,91.37,258.61Z"/>
      <path class="cls-4" d="M425.84,258.61c-25.13-17.87-60.63-39.76-89.82-54.28a95.67,95.67,0,0,0-7.92-9.81c34.58,16,78.81,42.82,106.43,64.09-27.62,21.26-71.85,48.11-106.43,64.09a94.72,94.72,0,0,0,7.92-9.82C365.21,298.37,400.71,276.48,425.84,258.61Z"/>
      <path class="cls-4" d="M311.53,113.2a155,155,0,0,1,96.86,106.56,80.2,80.2,0,0,0-10.14-14.27,149.82,149.82,0,0,0-88.54-87.28l1.82-5Zm-105,291.12a155,155,0,0,1-97.7-106.87A80.71,80.71,0,0,0,119,311.72a149.81,149.81,0,0,0,89.4,87.59Z"/>
      <path class="cls-4" d="M305.41,130a137.18,137.18,0,0,1,70.29,57.81,79.08,79.08,0,0,0-8.89-4A132,132,0,0,0,303.6,135l1.81-5ZM212.7,387.51a137.27,137.27,0,0,1-71.19-58.13,81.87,81.87,0,0,0,8.9,4,131.85,131.85,0,0,0,64.12,49.18Z"/>
      <path class="cls-1" d="M258.61,0C401.43,0,517.22,115.78,517.22,258.61S401.43,517.22,258.61,517.22,0,401.43,0,258.61,115.78,0,258.61,0Zm0,15.78C124.5,15.78,15.78,124.5,15.78,258.61S124.5,501.43,258.61,501.43,501.43,392.72,501.43,258.61,392.72,15.78,258.61,15.78Z"/>
    </g>
  </g>
</svg>
