<svg xmlns="http://www.w3.org/2000/svg" viewBox="0 0 517.22 517.22">
  <defs>
    <style>
      .cls-1, .cls-3 {
        fill: #000003;
      }

      .cls-2, .cls-4 {
        fill: #fff;
      }

      .cls-3, .cls-4 {
        fill-rule: evenodd;
      }
    </style>
  </defs>
  <title>Asset 11</title>
  <g id="Layer_2" data-name="Layer 2">
    <g id="Layer_1-2" data-name="Layer 1">
      <circle class="cls-1" cx="258.61" cy="258.61" r="175.93" transform="translate(-107.12 258.61) rotate(-45)"/>
      <circle class="cls-2" cx="258.61" cy="258.61" r="79.93" transform="translate(-107.12 258.61) rotate(-45)"/>
      <path class="cls-3" d="M258.61,273.91a15.3,15.3,0,1,0-15.3-15.3A15.34,15.34,0,0,0,258.61,273.91Z"/>
      <path class="cls-4" d="M91.37,258.61c25.14-17.87,60.63-39.76,89.82-54.28a95.67,95.67,0,0,1,7.92-9.81c-34.57,16-78.81,42.82-106.43,64.09,27.62,21.26,71.86,48.11,106.43,64.09a94.72,94.72,0,0,1-7.92-9.82C152,298.37,116.51,276.48,91.37,258.61Z"/>
      <path class="cls-4" d="M425.84,258.61c-25.13-17.87-60.63-39.76-89.82-54.28a95.67,95.67,0,0,0-7.92-9.81c34.58,16,78.81,42.82,106.43,64.09-27.62,21.26-71.85,48.11-106.43,64.09a94.72,94.72,0,0,0,7.92-9.82C365.21,298.37,400.71,276.48,425.84,258.61Z"/>
      <path class="cls-3" d="M258.61,0C401.43,0,517.22,115.78,517.22,258.61S401.43,517.22,258.61,517.22,0,401.43,0,258.61,115.78,0,258.61,0Zm0,15.78C124.5,15.78,15.78,124.5,15.78,258.61S124.5,501.43,258.61,501.43,501.43,392.72,501.43,258.61,392.72,15.78,258.61,15.78Z"/>
    </g>
  </g>
</svg>
