<svg xmlns="http://www.w3.org/2000/svg" viewBox="0 0 299.57 291.12">
  <defs>
    <style>
      .cls-1 {
        fill: #fff;
        fill-rule: evenodd;
      }
    </style>
  </defs>
  <title>Asset 9</title>
  <g id="Layer_2" data-name="Layer 2">
    <g id="Layer_1-2" data-name="Layer 1">
      <path class="cls-1" d="M202.71,0a155,155,0,0,1,96.86,106.56,80.71,80.71,0,0,0-10.14-14.27A149.82,149.82,0,0,0,200.89,5l1.82-5ZM97.7,291.12A155,155,0,0,1,0,184.25a80.71,80.71,0,0,0,10.14,14.27,149.81,149.81,0,0,0,89.4,87.59Z"/>
      <path class="cls-1" d="M196.59,16.83a137.21,137.21,0,0,1,70.29,57.81,80.73,80.73,0,0,0-8.89-4,132,132,0,0,0-63.21-48.84l1.81-5ZM103.88,274.31a137.27,137.27,0,0,1-71.19-58.13,81.87,81.87,0,0,0,8.9,4,131.87,131.87,0,0,0,64.11,49.18Z"/>
    </g>
  </g>
</svg>
