<svg xmlns="http://www.w3.org/2000/svg" viewBox="0 0 425.02 487.46">
  <defs>
    <style>
      .cls-1 {
        fill: #000003;
        fill-rule: evenodd;
      }
    </style>
  </defs>
  <title>Asset 1</title>
  <g id="Layer_2" data-name="Layer 2">
    <g id="Layer_1-2" data-name="Layer 1">
      <path class="cls-1" d="M331.15,243.34c3.39-26,4-49,2.38-69.48-16.92-11.59-37.15-22.62-61.37-32.68l-.67-.39c-20.81-15.93-40.48-27.95-59-36.81-18.5,8.86-38.17,20.87-59,36.81l-.67.39c-24.22,10.07-44.45,21.09-61.38,32.69-1.57,20.44-1,43.48,2.4,69.47v.77c-3.39,26-4,49-2.39,69.49,16.93,11.59,37.16,22.61,61.37,32.68l.67.38c20.82,15.94,40.48,28,59,36.82,18.5-8.87,38.17-20.88,59-36.82l.67-.38c24.22-10.07,44.46-21.1,61.39-32.69,1.57-20.45,1-43.48-2.4-69.48v-.77ZM205.47,100.73A350.86,350.86,0,0,0,150.2,135.8a350.78,350.78,0,0,0-58,30.34c3.76-35.3,14.1-62.5,27.25-83.64,24.88-.82,53.59,3.84,86,18.23Zm14.07,286a351.13,351.13,0,0,0,55.27-35.07,351.26,351.26,0,0,0,58-30.34c-3.77,35.3-14.1,62.5-27.25,83.63-24.88.82-53.6-3.83-86-18.22ZM85.14,178.34c-28.67,20.9-47.06,43.43-58.79,65.37,11.73,22,30.12,44.5,58.8,65.41a351.45,351.45,0,0,1,2.74-65.39,351.48,351.48,0,0,1-2.75-65.39ZM23,250.34c12.74,22.49,32.42,45.44,62.72,66.6,3.17,36.81,13.2,65.33,26.31,87.6-42.77-3.32-73.42-22.5-91.34-33.72-6-3.79-10.76-6.74-14.41-8,.72-3.8.52-9.36.26-16.49-.76-21.12-2-57.26,16.46-96ZM119.44,405C106.29,383.82,96,356.63,92.19,321.33a351.83,351.83,0,0,0,58,30.33,351.74,351.74,0,0,0,55.25,35.07c-32.43,14.37-61.14,19-86,18.23Zm220.44-95.85c28.66-20.89,47.05-43.42,58.78-65.37-11.73-22-30.11-44.5-58.8-65.41a351.48,351.48,0,0,1-2.73,65.4,352.27,352.27,0,0,1,2.75,65.38Zm62.14-72c-12.74-22.49-32.42-45.44-62.72-66.59-3.17-36.82-13.21-65.33-26.31-87.61,42.77,3.32,73.42,22.51,91.34,33.73,6,3.78,10.75,6.73,14.4,8-.71,3.81-.51,9.37-.26,16.5.76,21.12,2,57.26-16.45,96ZM305.57,82.5c13.15,21.14,23.49,48.33,27.25,83.63a350.26,350.26,0,0,0-58-30.33,351.42,351.42,0,0,0-55.24-35.07c32.43-14.38,61.13-19,86-18.23Zm-305,264C-.24,324-1.63,285,19.43,243.72-1.63,202.41-.24,163.42.56,140.94c.33-9.21.56-15.38-.56-16.61l2.85-4.94c1.63.35,6.87-2.93,14.68-7.82,19.06-11.93,52.13-32.63,98.44-35,25.25-38.9,59.72-57.2,79.59-67.74,8.14-4.32,13.6-7.22,14.1-8.78h5.7c.5,1.56,6,4.46,14.1,8.78C249.33,19.32,283.79,37.62,309,76.52c46.31,2.42,79.39,23.12,98.45,35.05,7.81,4.89,13,8.17,14.68,7.82l2.85,4.94c-1.12,1.23-.9,7.4-.57,16.61.81,22.48,2.2,61.48-18.87,102.79,21.06,41.32,19.68,80.3,18.87,102.78-.33,9.21-.55,15.39.57,16.61l-2.85,4.95c-1.64-.36-6.87,2.92-14.68,7.81-19.06,11.94-52.14,32.63-98.44,35.05-25.25,38.91-59.72,57.2-79.59,67.75-8.14,4.32-13.6,7.21-14.1,8.78h-5.7c-.5-1.57-6-4.46-14.1-8.78-19.87-10.55-54.34-28.84-79.58-67.75-46.31-2.41-79.39-23.11-98.45-35.05-7.81-4.89-13-8.17-14.68-7.81L0,363.12c1.12-1.22.89-7.4.56-16.61ZM23,237.09C4.5,198.4,5.78,162.28,6.54,141.16c.26-7.13.46-12.69-.26-16.5,3.65-1.29,8.37-4.24,14.41-8C38.6,105.42,69.25,86.24,112,82.91c-13.11,22.28-23.14,50.8-26.32,87.62-30.28,21.14-50,44.08-62.7,66.56ZM212.52,97.31c33.45-15.65,63.16-21.23,89-21C277.26,40.93,245.34,24,226.67,14.08c-6.31-3.35-11.22-6-14.16-8.49-2.94,2.53-7.86,5.14-14.16,8.49-18.67,9.9-50.6,26.85-74.86,62.21,25.84-.21,55.56,5.36,89,21ZM402,250.37c18.49,38.69,17.21,74.81,16.45,95.93-.25,7.13-.45,12.69.26,16.49-3.65,1.29-8.36,4.24-14.4,8C386.41,382,355.76,401.22,313,404.54c13.11-22.27,23.14-50.8,26.31-87.61,30.28-21.15,50-44.08,62.71-66.56ZM212.49,390.15c-33.45,15.64-63.15,21.22-89,21,24.26,35.36,56.18,52.32,74.85,62.22,6.3,3.34,11.22,5.95,14.16,8.48,2.94-2.53,7.85-5.14,14.16-8.48,18.67-9.9,50.6-26.86,74.86-62.22C275.68,411.38,246,405.8,212.49,390.15Z"/>
    </g>
  </g>
</svg>
